# xmcd
#
# Track frame offsets: 
#        150
#        20105
#        35935
#        50642
#        61921
#        84649
#        98454
#        117000
#        140422
#        162782
#        179217
#        192597
#        216023
#        228328
#        245141
#        264572
#
# Disc length: 3713 seconds
#
# Revision: 0
# Processed by: cddbd v1.5.2PL0 Copyright (c) Steve Scherf et al.
# Submitted via: ExactAudioCopy v0.95b4
#
DISCID=ed0e7f10
DTITLE=Patrick Normand - Les Grands succès
DYEAR=2000
DGENRE=Country
TTITLE0=Quand on est en amour
TTITLE1=Lumière de l'amour
TTITLE2=L'hirondelle
TTITLE3=Papillon
TTITLE4=Elle s'en va
TTITLE5=C'est la saison
TTITLE6=Forever
TTITLE7=Whispering shadows
TTITLE8=J'ai oublié de vivre
TTITLE9=C'est pour toi que je chante
TTITLE10=Perce les nuages
TTITLE11=Souvenir d'un vieillard
TTITLE12=Aiko Aiko
TTITLE13=Tout pour décorer ma vie
TTITLE14=Ou serons-nous demain?
TTITLE15=Maintenant je sais
EXTD=
EXTT0=
EXTT1=
EXTT2=
EXTT3=
EXTT4=
EXTT5=
EXTT6=
EXTT7=
EXTT8=
EXTT9=
EXTT10=
EXTT11=
EXTT12=
EXTT13=
EXTT14=
EXTT15=
PLAYORDER=
